<?xml version="1.0"?>
<svg xmlns="http://www.w3.org/2000/svg" xmlns:xlink="http://www.w3.org/1999/xlink" version="1.1" id="Layer_1" x="0px" y="0px" viewBox="0 0 512 512" style="enable-background:new 0 0 512 512;" xml:space="preserve" width="512px" height="512px"><g><g>
	<g>
		<path d="M510.704,311.785c-1.396-2.055-3.72-3.286-6.204-3.286h-63.224l-33.188-92.461c-0.03-0.085-0.062-0.169-0.096-0.252    c-4.201-10.501-14.224-17.286-25.533-17.286h-18.581l11.771-15H406c4.143,0,7.5-3.358,7.5-7.5c0-4.142-3.357-7.5-7.5-7.5h-68.78    l-32.825-34.553c-3.288-3.462-7.912-5.447-12.688-5.447H283.5v-15h2.5c4.143,0,7.5-3.358,7.5-7.5c0-4.142-3.357-7.5-7.5-7.5h-20    c-4.143,0-7.5,3.358-7.5,7.5c0,4.142,3.357,7.5,7.5,7.5h2.5v15H266c-9.649,0-17.5,7.851-17.5,17.5v22.5H156h-52.5v-15h45v0.5    c0,4.142,3.357,7.5,7.5,7.5s7.5-3.358,7.5-7.5v-8c0-4.142-3.357-7.5-7.5-7.5H96c-4.143,0-7.5,3.358-7.5,7.5v22.5h-7.667    c-9.649,0-17.5,7.851-17.5,17.5v13.077c-15.062,2.307-28.394,11.47-35.872,25.068c-0.159,0.289-0.299,0.589-0.419,0.896    L0.51,293.281c-0.028,0.071-0.048,0.144-0.073,0.215c-0.042,0.12-0.086,0.24-0.123,0.363c-0.033,0.111-0.058,0.224-0.086,0.336    c-0.028,0.112-0.059,0.223-0.082,0.337c-0.045,0.224-0.079,0.449-0.103,0.675c-0.007,0.063-0.007,0.127-0.012,0.191    c-0.014,0.177-0.025,0.355-0.027,0.533C0.003,295.953,0,295.975,0,295.999c0,0.062,0.008,0.122,0.009,0.184    c0.004,0.153,0.01,0.306,0.023,0.459c0.009,0.1,0.021,0.2,0.033,0.299c0.016,0.13,0.036,0.26,0.06,0.39    c0.02,0.11,0.041,0.219,0.065,0.328c0.026,0.115,0.056,0.229,0.088,0.342c0.032,0.114,0.063,0.228,0.1,0.341    c0.009,0.027,0.015,0.055,0.024,0.083l17.522,51.283c-3.51,1.374-6.521,3.869-8.562,7.231c-3.19,5.257-3.404,11.644-0.572,17.086    c4.955,9.521,10.574,18.829,16.701,27.666c5.126,7.394,13.572,11.809,22.594,11.809H419.03c4.143,0,7.5-3.358,7.5-7.5    c0-4.142-3.357-7.5-7.5-7.5H48.085c-4.104,0-7.942-2.002-10.268-5.355c-5.768-8.319-11.057-17.082-15.722-26.044    c-0.544-1.045-0.177-1.939,0.09-2.379c0.276-0.456,0.926-1.222,2.16-1.222h3.628c0.008,0,0.017,0.002,0.025,0.002    s0.016-0.002,0.024-0.002h338.902c7.931,0,15.474-3.423,20.696-9.391l23.047-26.34c2.374-2.713,5.803-4.269,9.407-4.269h72.935    c-8.268,17.038-19.743,32.593-33.601,45.458c-0.195,0.181-0.38,0.372-0.555,0.573c-7.016,8.061-10.764,18.341-10.59,29.008    c-3.782,0.383-6.734,3.578-6.734,7.461c0,4.142,3.357,7.5,7.5,7.5c3.87,0,7.486-1.529,10.182-4.306    c2.696-2.778,4.177-6.608,4.061-10.508c-0.209-6.973,2.151-13.714,6.654-19.026c18.076-16.868,32.438-37.917,41.546-60.896    C512.388,316.453,512.1,313.84,510.704,311.785z M341.648,183.499h14.933l-11.771,15h-14.933L341.648,183.499z M263.5,145.999    c0-1.378,1.121-2.5,2.5-2.5h25.707c0.683,0,1.343,0.283,1.813,0.778l23.01,24.222H263.5V145.999z M78.333,185.999    c0-1.378,1.121-2.5,2.5-2.5H96h60h100h66.581l-11.771,15H78.333V185.999z M70.833,213.499h243.615c0.002,0,0.004,0,0.006,0    c0.003,0,0.006,0,0.009,0h33.985c0.002,0,0.004,0,0.006,0c0.003,0,0.006,0,0.009,0h33.996c5.101,0,9.626,3.037,11.562,7.747    l2.604,7.253H42.39C48.78,219.176,59.388,213.499,70.833,213.499z M35.959,243.499h366.049l5.384,15H30.127L35.959,243.499z     M24.295,273.499h388.481l5.384,15H85c-0.692,0-1.359,0.101-1.996,0.277c-0.978-0.17-1.978-0.277-3.004-0.277H18.463    L24.295,273.499z M376.332,344.23c-2.374,2.713-5.803,4.269-9.407,4.269H33.364l-15.375-45H80c1.379,0,2.5,1.122,2.5,2.5v10    c0,9.649,7.851,17.5,17.5,17.5h285.721L376.332,344.23z M420.075,308.499c-7.931,0-15.474,3.423-20.696,9.391l-0.533,0.609H100    c-1.379,0-2.5-1.122-2.5-2.5v-10c0-0.851-0.082-1.681-0.2-2.5h326.245l1.795,5H420.075z" data-original="#000000" class="active-path" data-old_color="#000000" fill="#FFFFFF"/>
	</g>
</g></g> </svg>
